<?xml version="1.0" encoding="UTF-8"?><svg id="Camada_1" xmlns="http://www.w3.org/2000/svg" viewBox="0 0 41.53 41.45"><defs><style>.cls-1{fill:#fff;}.cls-2{fill:#020202;}</style></defs><rect class="cls-2" width="41.53" height="41.45"/><g><path class="cls-1" d="M33.26,21.86c-3.44,0-6.87-.02-10.31-.02-.52,0-1.03,.02-1.55,.03-.08,0-.17,.01-.27,.02v12.34h-.76v-12.35H8s-.04-.06-.04-.07q-.07-.74,.66-.74c3.8,0,7.61,0,11.41,0h.33V8.54h.77v12.54c.28,0,.54,0,.79,0,3.5,0,7.01-.01,10.51-.02,.33,0,.67,.02,1,.02,.18,0,.25,.07,.25,.24,0,.03,0,.05,0,.08,.02,.45,0,.47-.44,.46Z"/><path class="cls-1" d="M31.86,12.8c-.33-.21-.68-.4-.97-.65-.49-.43-1.04-.63-1.68-.54-.63,.09-1.07,.55-1.15,1.18-.01,.1-.03,.2-.06,.33-.58-.39-1.22-.53-1.86-.63-.93-.16-1.6-.66-2.05-1.48-.12-.22-.21-.45-.33-.67-.08-.14-.2-.25-.34-.43-.07,.21-.12,.32-.15,.45-.25,1.11-.38,2.23-.21,3.37,.18,1.21,.73,2.18,1.79,2.84,.09,.06,.18,.12,.3,.2-.33,.23-.63,.44-.93,.65-.31,.22-.61,.43-.92,.65,0,.03,0,.06,0,.1,1.32,.62,2.64,1.23,3.96,1.85,.26-.44,.5-.82,.71-1.21,.08-.15,.18-.2,.35-.19,.49,.03,.97-.04,1.43-.24,.95-.4,1.74-1.59,1.57-2.6-.07-.42-.1-.85-.12-1.28-.02-.47,.14-.88,.49-1.2,.13-.12,.26-.24,.4-.38-.09-.04-.16-.07-.22-.11Zm-1.63,2.38c.14,.65,.08,1.29-.37,1.85-.42,.54-.97,.76-1.6,.63-.47-.09-.75,.01-.95,.45-.12,.25-.3,.47-.48,.73-.58-.28-1.16-.56-1.78-.87,.41-.29,.78-.56,1.15-.82,.36-.26,.72-.52,1.15-.83-1.01-.17-1.93-.39-2.57-1.15-.62-.75-.89-1.64-.9-2.64,.24,.19,.45,.38,.68,.53,.57,.36,1.22,.48,1.88,.59,.71,.11,1.33,.4,1.76,1.01,.11,.15,.17,.33,.26,.52,.32-.13,.38-.41,.43-.67,.04-.22,0-.46,0-.69,0-.21-.02-.43,0-.64,.07-.64,.72-.92,1.24-.53,.16,.12,.31,.26,.48,.41-.51,.65-.53,1.36-.37,2.13Z"/><path class="cls-1" d="M9.44,24.13c-.02,.06-.04,.07-.04,.09,.01,.13,.03,.25,.04,.38,.06,1,.42,1.87,1.1,2.6,.38,.41,.79,.79,1.21,1.15,.61,.54,.85,1.38,.51,2.12-.19,.43-.46,.82-.7,1.23-.09,.16-.19,.32-.3,.51h5.05c-.09-.16-.15-.28-.22-.39-.18-.28-.38-.55-.55-.84-.64-1.09-.48-1.97,.46-2.82,.45-.41,.89-.83,1.28-1.3,.66-.79,.85-1.74,.88-2.74H9.44Zm7.1,1.67c-.36,.45-.74,.9-1.15,1.32-.46,.48-.89,.97-1.12,1.61-.26,.72-.26,1.43,.07,2.12,.07,.15,.13,.29,.21,.47h-1.55c.04-.11,.07-.2,.11-.28,.7-1.26,.25-2.69-.59-3.52-.41-.4-.82-.81-1.2-1.23-.28-.3-.46-.67-.54-1.09h6.03c-.1,.23-.14,.45-.27,.6Z"/><path class="cls-1" d="M29.52,26.54c-.51-1.19-.99-2.33-1.92-3.25-.86,.93-1.41,2-1.88,3.21-.84-.75-1.72-1.4-2.84-1.73,.53,1.89,1.04,3.72,1.56,5.55,.02,.07,.15,.15,.24,.15,.58,.02,1.17,.04,1.75,.04,1.31,0,2.61,0,3.92-.02,.43,0,.42-.02,.53-.39,.37-1.38,.74-2.76,1.11-4.15,.1-.38,.2-.75,.3-1.17-1.07,.4-1.97,.97-2.77,1.76Zm1.19,.83c-.22,.63-.46,1.25-.68,1.88-.06,.16-.14,.2-.3,.2-1.42,0-2.85,0-4.27-.02-.08,0-.22-.08-.24-.15-.3-.83-.58-1.67-.87-2.5-.01-.04-.02-.08-.02-.12,.01-.01,.03-.02,.04-.03,.6,.59,1.2,1.19,1.82,1.81,.44-1.2,.74-2.43,1.42-3.57,.69,1.14,1.02,2.37,1.43,3.62,.62-.65,1.22-1.27,1.81-1.9,.02,.02,.05,.03,.07,.05-.07,.24-.13,.48-.22,.72Z"/><path class="cls-1" d="M17.8,12.26v1.23h-3.3v6.48h-1.2v-6.48h-3.29v-1.22h.34c.87,0,1.73,0,2.6,0,.33,0,.35-.02,.35-.35,0-.75,0-1.49,0-2.24,0-.23,.08-.31,.3-.29,.22,.02,.45,.02,.67,0,.19,0,.27,.05,.26,.26-.01,.85,0,1.7,0,2.59h3.27Z"/><path class="cls-1" d="M30.07,32.17c-1.67,.02-3.35,.05-5.02,.05-.58,0-.47,.02-.49-.49,0-.17,0-.34,0-.54,.11,0,.21,0,.3,0,.97,0,1.94,0,2.91,0,.85,0,1.7-.02,2.54-.04,.26,0,.35,.1,.36,.34,.05,.65,.04,.67-.61,.68Z"/></g></svg>